<svg width="70" height="96" viewBox="0 0 70 96" fill="none" xmlns="http://www.w3.org/2000/svg">
<g clip-path="url(#clip0_26_97)">
<mask id="mask0_26_97" style="mask-type:luminance" maskUnits="userSpaceOnUse" x="0" y="0" width="70" height="96">
<path d="M70 0H0V96H70V0Z" fill="white"/>
</mask>
<g mask="url(#mask0_26_97)">
<path fill-rule="evenodd" clip-rule="evenodd" d="M35 0C18.8455 0 0 9.51142 0 33.7329C0 50.1635 26.9267 86.4886 35 96V54.857C23.4021 54.857 14 45.6471 14 34.2857C14 22.9245 23.4021 13.7143 35 13.7143V0Z" fill="#699BF7"/>
<path fill-rule="evenodd" clip-rule="evenodd" d="M35 0C51.1542 0 70 9.51142 70 33.7329C70 50.1635 43.0733 86.4886 35 96V54.857C46.5981 54.857 56 45.6471 56 34.2857C56 22.9245 46.5981 13.7143 35 13.7143V0Z" fill="#5D88D6"/>
</g>
<circle cx="35" cy="34" r="21" fill="white"/>
<g clip-path="url(#clip1_26_97)">
<path d="M20.5664 44.4928C20.5664 46.0516 21.8306 47.3135 23.3871 47.3135H45.5087C47.0674 47.3135 48.3294 46.0493 48.3294 44.4928V36.1236C48.3294 34.6215 47.1127 33.4048 45.6106 33.4048H23.2852C21.783 33.4048 20.5664 34.6215 20.5664 36.1236V44.4928Z" fill="#BCCF38"/>
<path d="M42.0672 35.8608C41.9426 35.2037 41.929 34.5354 41.8633 33.8716C41.8542 33.7855 41.8429 33.6971 41.8406 33.6087C41.8361 33.4252 41.7432 33.3006 41.571 33.2349C41.4804 33.1987 41.3671 33.2055 41.272 33.1896C41.17 33.1715 41.0726 33.1669 40.9706 33.1692C40.9616 33.1692 40.9525 33.1692 40.9434 33.1715C40.9366 33.1692 40.9276 33.1692 40.9185 33.1692C40.8143 33.1669 40.7169 33.1737 40.6149 33.1896C40.5198 33.2055 40.4065 33.2009 40.3159 33.2349C40.1437 33.3029 40.0508 33.4252 40.0463 33.6087C40.044 33.6971 40.0327 33.7832 40.0259 33.8716C39.9579 34.5354 39.9466 35.2037 39.822 35.8608C39.7177 36.3977 39.0766 37.2655 39.9398 37.4626C40.5809 37.6076 41.3082 37.6076 41.9494 37.4626C42.8126 37.2655 42.1714 36.3977 42.0672 35.8608Z" fill="#855C52"/>
<path d="M47.9057 32.0296C46.9315 31.7555 46.1657 31.3907 45.622 31.0803C45.5834 31.0463 45.5291 31.0191 45.5472 30.9625C45.5585 30.9262 45.6061 30.9127 45.6401 30.9059C45.9663 30.8628 46.245 30.8152 46.4489 30.7654C47.5885 30.4935 47.5953 29.7662 47.5953 29.7662C47.5953 29.7662 47.763 28.8962 46.7412 28.6108C45.8417 28.357 45.1167 28.0285 44.582 27.7317C44.5458 27.7091 44.5095 27.6819 44.5254 27.6388C44.5345 27.6162 44.5526 27.6026 44.573 27.598C44.7406 27.5777 44.8924 27.5573 45.0193 27.5346C46.0071 27.3534 46.0456 26.728 46.0456 26.728C46.0456 26.728 46.211 26.0348 45.3659 25.7017C44.5798 25.3913 43.7913 24.9291 43.2725 24.5984C43.2453 24.5689 43.2091 24.5327 43.2272 24.4941C43.243 24.4579 43.2861 24.4556 43.3223 24.4511H43.3269L43.4787 24.4692C43.4787 24.4692 44.3532 24.6369 44.6228 23.887C44.8924 23.137 44.0609 22.7428 44.0609 22.7428C42.4229 21.968 41.3399 19.7839 41.3399 19.7839C41.1111 19.3466 40.9434 19.4305 40.9434 19.4305C40.9434 19.4305 40.778 19.3466 40.5492 19.7839C40.5492 19.7839 39.4663 21.9702 37.8214 22.7405C37.8214 22.7405 36.9899 23.1348 37.2595 23.8847C37.5314 24.6346 38.4059 24.467 38.4059 24.467L38.5577 24.4488H38.56C38.594 24.4534 38.6393 24.4556 38.6552 24.4919C38.6733 24.5304 38.637 24.5666 38.6098 24.5961C38.091 24.9269 37.3026 25.3891 36.5164 25.6995C35.6691 26.0325 35.8367 26.7258 35.8367 26.7258C35.8367 26.7258 35.8775 27.3488 36.863 27.5323C36.9899 27.555 37.144 27.5754 37.3116 27.5958C37.332 27.6026 37.3524 27.6139 37.3592 27.6366C37.3751 27.6796 37.3411 27.7068 37.3048 27.7295C36.6211 28.104 35.8966 28.3989 35.1457 28.6085C34.1239 28.894 34.2916 29.764 34.2916 29.764C34.2916 29.764 34.3006 30.4912 35.438 30.7631C35.6419 30.813 35.9205 30.8583 36.2468 30.9036C36.2808 30.9104 36.3284 30.9262 36.3397 30.9602C36.3578 31.0146 36.3034 31.0441 36.2649 31.078C35.7234 31.3907 34.9554 31.7555 33.9812 32.0273C32.9594 32.3128 33.127 33.1828 33.127 33.1828C33.127 33.1828 33.1452 33.8761 34.2757 34.1842C34.7424 34.3111 35.3972 34.3134 36.1245 34.2454C36.2264 34.2499 36.3352 34.2386 36.4258 34.293C36.5368 34.3609 36.5413 34.5037 36.573 34.6147C36.6025 34.7212 36.6433 34.8254 36.6954 34.9228C37.178 35.786 38.3606 35.4688 39.2148 34.8934C39.2986 34.8458 39.396 34.8095 39.4957 34.7937C39.6316 34.771 39.7698 34.7869 39.8899 34.8526C39.899 34.8571 39.9126 34.8662 39.9216 34.873C40.0145 34.9523 40.112 35.0248 40.2207 35.0882C40.4133 35.1992 40.6557 35.2559 40.8709 35.3057C41.2697 35.4009 41.7795 35.3284 42.1533 35.095C42.1691 35.0859 42.185 35.0746 42.1941 35.0701C42.2031 35.0655 42.2122 35.0565 42.2213 35.0497C42.2326 35.0406 42.2439 35.0338 42.2552 35.027C42.2938 34.9976 42.33 34.9681 42.3708 34.9432C42.4501 34.8934 42.543 34.8594 42.6359 34.8526C42.6789 34.8503 42.7197 34.8526 42.7605 34.8594C42.8239 34.873 42.8873 34.8979 42.944 34.9296C42.9553 34.9364 42.9734 34.9477 42.9893 34.9545C43.8366 35.4983 44.9627 35.7747 45.4316 34.9341C45.486 34.8367 45.5245 34.7325 45.554 34.6283C45.5857 34.5173 45.5925 34.3745 45.7013 34.3066C45.7738 34.2612 45.8621 34.2612 45.9459 34.2612C46.6007 34.3134 47.1852 34.2998 47.6134 34.1842C48.744 33.8761 48.7621 33.1828 48.7621 33.1828C48.7621 33.1828 48.9275 32.3151 47.9057 32.0296Z" fill="#757F3F"/>
<path d="M39.1921 23.606C39.353 23.6672 39.4572 23.7918 39.686 23.7012C39.8333 23.6423 39.9669 23.4225 39.9873 23.2707C40.0191 23.0351 39.8582 23.0917 39.7041 23.017C39.6588 22.8969 39.7925 22.7088 39.7245 22.5752C39.6271 22.3848 39.3258 22.5865 39.2374 22.6884C39.097 22.8493 38.9769 22.9671 38.782 23.0713C38.6506 23.1416 38.0933 23.4338 38.3652 23.6355C38.4218 23.6763 38.4784 23.683 38.5487 23.683C38.7277 23.6808 38.9066 23.5607 39.0788 23.5788C39.1196 23.5811 39.1581 23.5924 39.1921 23.606ZM37.5518 26.0937C37.3479 26.1662 36.9174 26.4335 37.1893 26.6805C37.3796 26.8549 37.7852 26.7552 38.0072 26.6986C38.1001 26.6759 38.2224 26.6102 38.3198 26.6148C38.4241 26.6193 38.4263 26.6963 38.4603 26.7824C38.5305 26.9569 38.6597 26.9909 38.8387 26.9909C38.9474 26.9909 39.0335 26.9954 39.1309 26.9501C39.3643 26.8391 39.3484 26.8957 39.5637 26.9727C39.8152 27.0634 40.0281 26.9388 40.1754 26.7371C40.223 26.6714 40.2615 26.5717 40.257 26.4924C40.2502 26.3406 40.1437 26.2613 39.9851 26.284C39.8265 26.3066 39.7155 26.3406 39.6316 26.1798C39.5184 25.9668 39.1966 26.2319 39.1173 26.0801C39.0811 26.0121 39.1581 25.8694 39.1445 25.7878C39.1287 25.6881 39.0698 25.6134 38.9655 25.5975C38.8024 25.5703 38.6665 25.6134 38.5351 25.6859C38.2881 25.8195 38.0752 25.9283 37.8055 26.0121C37.7376 26.0348 37.6469 26.0597 37.5518 26.0937ZM37.903 28.4952C37.767 28.4771 37.6062 28.5338 37.4929 28.5881C37.0262 28.8147 36.5662 29.0548 36.0973 29.2769C35.9319 29.3539 35.6691 29.4332 35.6759 29.6643C35.6894 30.0834 36.4144 29.9045 36.6569 29.8773C36.8698 29.8523 37.221 29.7685 37.3977 29.9407C37.4997 30.0404 37.5473 30.0993 37.6968 30.1152C37.9483 30.1423 38.2745 29.8886 38.5011 30.0109C38.594 30.0608 38.6461 30.1288 38.7526 30.165C39.0063 30.2534 39.3144 30.1491 39.5229 29.9928C39.6996 29.8614 39.8265 29.4785 39.5841 29.3494C39.4255 29.2633 39.3009 29.4196 39.1536 29.3924C38.9338 29.3516 38.9859 29.1863 38.8296 29.0639C38.6416 28.9166 38.347 29.1636 38.2111 29.0186C38.0955 28.8985 38.1726 28.6969 38.0706 28.5836C38.023 28.5292 37.9664 28.5043 37.903 28.4952ZM37.4181 31.803C37.0307 31.7283 36.6387 32.0205 36.3057 32.1678C35.9387 32.3309 35.5309 32.3559 35.1684 32.5303C34.9282 32.6459 34.9509 33.0129 35.1865 33.1171C35.4017 33.2123 35.6781 33.1873 35.9047 33.1738C36.2423 33.1556 36.5617 33.0084 36.8993 32.9789C37.3592 32.9381 37.3819 33.0627 37.4612 33.457C37.5178 33.7447 37.8237 33.901 38.1001 33.8398C38.2451 33.8081 38.3719 33.6835 38.5056 33.6246C38.6755 33.5498 38.6687 33.5702 38.8319 33.6246C38.9497 33.6654 39.1015 33.6609 39.217 33.6178C39.4096 33.5453 39.5002 33.3935 39.5048 33.2009C39.5116 32.8996 39.507 32.5031 39.0902 32.6187C38.6348 32.7455 38.782 32.4986 38.4512 32.374C38.2156 32.2856 37.9981 32.5122 37.7806 32.3196C37.613 32.1678 37.7127 31.8688 37.4181 31.803Z" fill="#99A95A"/>
<path d="M20.947 40.1904C20.947 40.1904 20.3444 40.7908 20.8677 41.3731C21.1056 41.6381 21.6516 41.9508 22.4922 42.2974C25.8884 43.6998 29.749 45.4693 30.4604 45.356C31.1718 45.2427 40.6874 41.7695 41.238 41.4297C41.7885 41.0898 41.9403 40.2516 41.1609 39.8619C39.9896 39.2774 29.9325 42.6758 29.9325 42.6758C29.9325 42.6758 21.2098 39.6738 20.947 40.1904Z" fill="#A3A30D"/>
<path d="M21.2937 41.1646C20.9561 41.0287 20.7884 40.6503 20.9062 40.3082C24.5947 29.6145 30.6031 30.3304 30.6031 30.3304C37.4657 30.489 40.4541 38.0086 41.204 40.281C41.3195 40.6345 41.1292 41.0151 40.7758 41.1352L30.3766 44.6537C30.2225 44.7058 30.0548 44.7012 29.9053 44.6401L21.2937 41.1646Z" fill="#FCC21B"/>
<path d="M30.6122 30.2783C30.6122 30.2783 29.4771 30.8968 29.3072 35.8245C29.178 39.5606 30.3766 44.6492 30.3766 44.6492L40.8279 41.117C41.1609 41.0038 41.3535 40.6594 41.272 40.3195C40.7667 38.1581 38.4966 30.8764 30.6122 30.2783Z" fill="#E89F0F"/>
<path d="M31.5592 26.3837C31.7518 26.4041 31.9353 26.4652 32.137 26.4992C33.1837 26.6737 37.3728 27.2695 37.6266 27.3692C37.7376 27.4123 37.8916 27.487 37.9256 27.6139C37.9777 27.8065 37.7353 27.8926 37.6016 27.9605C37.0284 28.2505 32.7034 29.6915 32.0826 29.8954C31.8809 29.9634 31.7087 30.0585 31.4935 30.0676C31.2964 30.0744 31.0676 30.2012 30.8863 30.0744C30.7096 29.9543 30.7005 29.7844 30.7005 29.5895C30.7005 29.3856 30.6666 29.1772 30.6462 28.9778C30.628 28.7784 30.6462 28.5677 30.6462 28.3661C30.6462 28.1463 30.6734 27.9424 30.6734 27.7227C30.6734 27.4802 30.6779 27.2469 30.7005 27.0112C30.7164 26.8436 30.7504 26.6487 30.841 26.5128C30.9135 26.4063 30.9951 26.327 31.1242 26.3021C31.2851 26.2704 31.4074 26.3655 31.5592 26.3837Z" fill="#ED6C30"/>
<path d="M30.542 31.0078C30.3199 31.0078 30.1409 30.788 30.1409 30.5162V26.2726C30.1409 26.0008 30.3199 25.781 30.542 25.781C30.764 25.781 30.943 26.0008 30.943 26.2726V30.5162C30.943 30.788 30.764 31.0078 30.542 31.0078ZM38.5011 41.8987C38.5011 41.8987 37.2255 35.5594 34.6926 36.255C32.5334 36.8463 33.6934 43.5231 33.6934 43.5231L38.5011 41.8987Z" fill="#855C52"/>
</g>
</g>
<defs>
<clipPath id="clip0_26_97">
<rect width="70" height="96" fill="white"/>
</clipPath>
<clipPath id="clip1_26_97">
<rect width="29" height="29" fill="white" transform="translate(20 19)"/>
</clipPath>
</defs>
</svg>
