<svg width="70" height="96" viewBox="0 0 70 96" fill="none" xmlns="http://www.w3.org/2000/svg">
<g clip-path="url(#clip0_27_165)">
<mask id="mask0_27_165" style="mask-type:luminance" maskUnits="userSpaceOnUse" x="0" y="0" width="70" height="96">
<path d="M70 0H0V96H70V0Z" fill="white"/>
</mask>
<g mask="url(#mask0_27_165)">
<path fill-rule="evenodd" clip-rule="evenodd" d="M35 0C18.8455 0 0 9.51142 0 33.7329C0 50.1635 26.9267 86.4886 35 96V54.857C23.4021 54.857 14 45.6471 14 34.2857C14 22.9245 23.4021 13.7143 35 13.7143V0Z" fill="#699BF7"/>
<path fill-rule="evenodd" clip-rule="evenodd" d="M35 0C51.1542 0 70 9.51142 70 33.7329C70 50.1635 43.0733 86.4886 35 96V54.857C46.5981 54.857 56 45.6471 56 34.2857C56 22.9245 46.5981 13.7143 35 13.7143V0Z" fill="#5D88D6"/>
</g>
<circle cx="35" cy="34" r="21" fill="white"/>
</g>
<path d="M20.9687 44.3236C20.9421 45.767 21.9666 46.8181 24.6185 46.9223C27.2705 47.0264 45.2529 47.0022 46.7762 46.9755C48.2996 46.9489 50.0579 46.4766 50.0845 44.4277C50.1112 42.3788 47.3284 41.9066 47.3284 41.9066C47.3284 41.9066 24.96 41.9332 24.0421 41.9865C23.1242 42.0398 21.0002 42.512 20.9687 44.3236Z" fill="#B7D118"/>
<path d="M42.8795 42.7687C42.8795 42.7687 48.6508 42.8075 48.9293 42.7494C49.2078 42.6888 49.4306 42.3473 49.4694 42.0083C49.45 40.7901 48.0502 40.7126 48.0502 40.7126C48.0502 40.7126 48.2827 39.94 47.6433 39.3006C46.8053 38.3827 45.5726 38.7557 45.5726 38.7557C45.5726 38.7557 45.374 38.0969 44.7927 37.7361C44.2139 37.3776 42.9352 37.4769 42.9352 37.4769L42.8795 42.7687ZM26.263 39.2764C26.263 39.2764 25.5195 38.9349 24.914 39.1819C23.9961 39.5573 24.0348 40.1919 23.7902 40.4365C23.548 40.6787 22.2305 40.5915 21.8794 41.7273C21.7292 42.2141 21.86 42.6646 22.2717 42.6646C22.6834 42.6646 25.735 42.5701 25.735 42.5701L26.263 39.2764Z" fill="#5A9821"/>
<path d="M25.7398 38.6031C25.7398 38.6031 25.7592 40.0635 25.7398 40.3638C25.7205 40.6641 25.4783 41.6934 25.2894 42.0664C25.1029 42.4418 25.0641 42.7784 25.3257 42.8341C25.5873 42.8898 27.3092 42.8341 27.3092 42.8341L27.0307 38.6031H25.7398Z" fill="#875B50"/>
<path d="M26.9556 38.9713C24.7469 39.0463 22.3516 37.5617 21.3005 33.4784C20.2495 29.3952 21.3805 24.5829 22.6762 22.5195C23.9719 20.456 25.1029 19.497 26.4785 19.5357C28.1666 19.5866 29.9297 21.9285 30.6829 23.8927C31.4143 25.7963 31.3925 27.3874 31.3925 27.3874L27.6313 38.5644L26.9556 38.9713Z" fill="#B7D118"/>
<path d="M35.6962 26.7093L26.8248 35.6218L26.8951 42.6888L33.4874 43.7302L44.4149 42.9141L44.4416 34.9098L35.6962 26.7093Z" fill="#FFF3E1"/>
<path d="M26.493 42.4152L27.1058 42.0761V35.4256L26.5366 35.8059C26.5366 35.8059 26.5996 42.4152 26.493 42.4152ZM44.1073 35.7841V42.0349L44.7201 42.374V36.0166L44.1073 35.7841Z" fill="#5F4E47"/>
<path d="M35.7567 27.6611L26.5366 36.2902V34.1154L35.7664 25.3724L44.7201 34.6434V36.4816L35.7567 27.6611Z" fill="#BCAA93"/>
<path d="M25.6309 33.74L25.0908 34.7378L26.5415 34.716C26.5415 34.716 35.5872 25.9173 35.7834 25.9077C36.0183 25.898 44.7152 34.8686 44.7152 34.8686L46.0012 34.8492L36.3525 24.4545L34.9357 24.3625L25.6309 33.74Z" fill="#AB5832"/>
<path d="M23.9622 34.4908C23.812 34.6748 23.9598 34.7741 24.0833 34.7741C24.2068 34.7741 25.6236 34.733 25.6236 34.733L35.391 25.2295C35.391 25.2295 35.6163 24.9995 35.7761 25.0067C35.9505 25.0164 36.1757 25.2344 36.1757 25.2344L45.9891 34.8541C45.9891 34.8541 47.108 34.8565 47.2873 34.8129C47.481 34.7645 47.3817 34.5828 47.1444 34.3261C46.97 34.1372 37.0452 24.3213 36.8829 24.1518C36.3961 23.6481 36.1563 23.355 35.6962 23.3744C35.2336 23.3938 34.9599 23.7352 34.4973 24.1615C34.3593 24.2923 24.0276 34.4109 23.9622 34.4908Z" fill="#ED6C31"/>
<path d="M41.4336 37.9347H43.4341V36.2684C43.4341 35.9584 43.1822 35.709 42.8746 35.709H41.4336V37.9347ZM40.8305 37.9347V35.709H39.2684C38.9584 35.709 38.709 35.9609 38.709 36.2684V37.9347H40.8305ZM40.8305 38.5644H38.709V40.1265C38.709 40.4365 38.9609 40.6859 39.2684 40.6859H40.8305V38.5644ZM41.4336 38.5644V40.6859H42.8746C43.1846 40.6859 43.4341 40.4341 43.4341 40.1265V38.5644H41.4336ZM30.3559 37.9347H32.3564V36.2684C32.3564 35.9584 32.1045 35.709 31.797 35.709H30.3559V37.9347ZM29.7529 37.9347V35.709H28.1908C27.8808 35.709 27.6313 35.9609 27.6313 36.2684V37.9347H29.7529ZM29.7529 38.5644H27.6313V40.1265C27.6313 40.4365 27.8832 40.6859 28.1908 40.6859H29.7529V38.5644ZM30.3559 38.5644V40.6859H31.797C32.107 40.6859 32.3564 40.4341 32.3564 40.1265V38.5644H30.3559Z" fill="#A6CFD5"/>
<path d="M33.0079 42.9891C33.0079 42.9891 32.9788 38.1599 33.0079 36.9417C33.037 35.7235 34.1825 34.67 35.5048 34.716C37.1445 34.7717 37.9873 35.6945 38.0478 36.8836C38.1084 38.0727 38.1084 43.0666 38.1084 43.0666L33.0079 42.9891Z" fill="#D27857"/>
<path d="M33.6206 43.2507C33.6206 43.2507 33.5964 38.1042 33.6206 37.1524C33.6497 35.9705 34.5409 35.3505 35.5751 35.4111C36.7787 35.4789 37.3745 36.1207 37.4205 37.0507C37.4666 37.9807 37.4666 43.2555 37.4666 43.2555L33.6206 43.2507Z" fill="#AB5932"/>
<path d="M36.8441 39.056C36.8393 38.2084 36.832 37.4624 36.8199 37.2323C36.7884 36.6172 36.3525 36.1377 35.5024 36.1086C34.817 36.0844 34.2527 36.6196 34.2358 37.2517C34.2309 37.4842 34.2309 38.2156 34.2358 39.0439L36.8441 39.056ZM34.2455 40.0054C34.2527 41.1388 34.2624 42.1827 34.2624 42.1827L36.8514 42.1899C36.8514 42.1899 36.8514 41.1509 36.8466 40.0151L34.2455 40.0054Z" fill="#D27857"/>
<path d="M36.8538 39.492C36.8441 39.7656 36.9555 39.9909 37.2801 39.9909C37.6046 39.9909 37.7257 39.8383 37.7475 39.5428C37.7669 39.2788 37.5852 39.0439 37.2801 39.0657C36.9749 39.0851 36.8611 39.2982 36.8538 39.492Z" fill="#FFBA02"/>
<path d="M38.6315 44.59C38.6315 44.59 40.7361 44.5997 42.2716 44.6045C43.8482 44.607 44.7758 44.5682 45.0591 44.4132C45.2723 44.297 45.3328 42.3352 44.3713 41.7927C43.422 41.2575 42.739 41.645 42.4048 41.6789C41.9616 41.7225 41.7484 41.4052 40.9977 41.3859C39.3241 41.3423 38.8252 42.73 38.8252 42.73L38.6315 44.59ZM26.3259 44.4738C26.5221 44.6602 27.7234 44.5924 29.3605 44.5803C30.9977 44.5682 32.3322 44.5779 32.3322 44.5779L32.9788 42.9964L32.3152 42.7082C32.3152 42.7082 32.2934 41.8266 31.2496 41.5457C30.5279 41.352 29.8982 41.6716 29.2927 41.6838C28.6848 41.6959 28.3797 41.444 27.704 41.6038C27.0743 41.754 26.4688 42.1899 26.2702 43.0182C26.1322 43.5922 26.1661 44.3236 26.3259 44.4738Z" fill="#728037"/>
<path d="M32.1772 46.2635L32.1893 44.5779H32.3128L32.3104 42.7009H38.8446L38.8228 44.5779H38.9681V46.2199C38.9681 46.2175 32.1772 46.2732 32.1772 46.2635Z" fill="#B0B0B0"/>
<path d="M38.9705 45.5273V46.2175L32.1748 46.2635L32.182 45.52L38.9705 45.5273ZM32.3104 43.8465L38.8373 43.8513V44.5755L32.3104 44.5779V43.8465Z" fill="#9B9B9B"/>
<path d="M39.4234 43.1659C39.4331 43.3669 39.5687 43.5583 39.8497 43.5583C40.1306 43.5583 40.2638 43.3355 40.2759 43.1562C40.288 42.977 40.1524 42.7082 39.84 42.7203C39.5252 42.73 39.4113 42.9407 39.4234 43.1659ZM40.9008 42.3401C40.8814 42.5314 41.0679 42.7978 41.3367 42.7663C41.6055 42.7348 41.7387 42.5435 41.717 42.3183C41.6952 42.0955 41.4699 41.9816 41.2907 41.9816C41.1139 41.9816 40.9226 42.1269 40.9008 42.3401ZM43.2839 43.4105C43.2984 43.6673 43.4171 43.8368 43.7102 43.8368C44.0008 43.8368 44.1243 43.6261 44.1243 43.4348C44.1243 43.1538 43.979 42.9867 43.6884 42.9867C43.3977 42.9867 43.2742 43.1998 43.2839 43.4105Z" fill="#FDB900"/>
<path d="M27.2923 43.2434C27.0234 43.2652 26.8902 43.4783 26.8999 43.6697C26.912 43.861 27.0452 44.0838 27.2923 44.062C27.5393 44.0402 27.7064 43.8949 27.6943 43.6697C27.687 43.5001 27.5708 43.2216 27.2923 43.2434ZM29.1716 42.0567C28.9537 42.0567 28.7793 42.2795 28.7793 42.4248C28.7793 42.5701 28.8907 42.839 29.1716 42.8269C29.4526 42.8147 29.5398 42.6137 29.5519 42.4127C29.564 42.2117 29.3509 42.0567 29.1716 42.0567ZM29.6754 43.4687C29.656 43.6576 29.7771 43.9385 30.0774 43.9264C30.3802 43.9143 30.4795 43.6697 30.4698 43.4783C30.4577 43.287 30.2688 43.1199 30.0774 43.1102C29.8885 43.0981 29.6972 43.2434 29.6754 43.4687ZM30.8403 42.7954C30.85 42.9528 30.942 43.1756 31.2084 43.1417C31.4773 43.1078 31.5088 42.9504 31.4991 42.7833C31.487 42.5822 31.3416 42.4805 31.1624 42.4805C30.9832 42.4805 30.8282 42.6283 30.8403 42.7954Z" fill="#FEB800"/>
<defs>
<clipPath id="clip0_27_165">
<rect width="70" height="96" fill="white"/>
</clipPath>
</defs>
</svg>
