<svg width="70" height="96" viewBox="0 0 70 96" fill="none" xmlns="http://www.w3.org/2000/svg">
<g clip-path="url(#clip0_27_185)">
<mask id="mask0_27_185" style="mask-type:luminance" maskUnits="userSpaceOnUse" x="0" y="0" width="70" height="96">
<path d="M70 0H0V96H70V0Z" fill="white"/>
</mask>
<g mask="url(#mask0_27_185)">
<path fill-rule="evenodd" clip-rule="evenodd" d="M35 0C18.8455 0 0 9.51142 0 33.7329C0 50.1635 26.9267 86.4886 35 96V54.857C23.4021 54.857 14 45.6471 14 34.2857C14 22.9245 23.4021 13.7143 35 13.7143V0Z" fill="#699BF7"/>
<path fill-rule="evenodd" clip-rule="evenodd" d="M35 0C51.1542 0 70 9.51142 70 33.7329C70 50.1635 43.0733 86.4886 35 96V54.857C46.5981 54.857 56 45.6471 56 34.2857C56 22.9245 46.5981 13.7143 35 13.7143V0Z" fill="#5D88D6"/>
</g>
<circle cx="35" cy="34" r="21" fill="white"/>
</g>
<path d="M35.9426 50.584H37.9641C38.8573 50.584 39.5964 49.8892 39.6518 48.9977C39.926 44.586 39.6873 40.0413 38.1362 35.9071C37.4012 33.9481 36.3751 32.0926 34.9046 30.5874C33.8242 29.4814 33.595 29.0259 32.5063 29.8171C30.7395 31.1015 31.9415 31.2787 32.5454 32.4488C33.4582 34.2173 34.2357 35.396 34.6544 37.4424C35.3957 41.0654 35.0295 44.9142 34.2852 48.562C34.0718 49.6073 34.8758 50.584 35.9426 50.584Z" fill="#E5AA6E"/>
<path d="M47.9162 26.6149L47.8865 26.568C47.8666 26.5372 47.8385 26.4903 47.7988 26.4321L47.6545 26.2161C47.6287 26.1739 47.5877 26.1268 47.549 26.078L47.4185 25.9234L47.2701 25.7497L47.1027 25.5745C46.9866 25.4508 46.8553 25.3218 46.7059 25.1955C46.6296 25.1283 46.5524 25.0621 46.4744 24.9969C46.3934 24.9305 46.306 24.8688 46.2176 24.8016C46.1286 24.7358 46.0374 24.6661 45.94 24.6027L45.638 24.4105C45.5861 24.3781 45.5341 24.3437 45.4799 24.3129L45.3139 24.2235L44.9693 24.04C44.85 23.9834 44.7268 23.9296 44.6015 23.8738C44.5386 23.8466 44.4758 23.8166 44.411 23.7912L44.2146 23.7166C43.6867 23.5115 43.1053 23.3556 42.4899 23.2521L42.2576 23.2146C42.1796 23.2021 42.1014 23.1883 42.0222 23.1833L41.5429 23.1409C41.2203 23.126 40.891 23.1104 40.5593 23.1329C40.3932 23.1401 40.226 23.1454 40.059 23.1661L39.8077 23.1923L39.6818 23.2075L39.6504 23.2114L39.6346 23.2133L39.6267 23.2143C39.6636 23.2065 39.5676 23.2259 39.5752 23.2244L39.5213 23.2338L39.0897 23.3093L39.0351 23.3191L38.9683 23.3349L38.8347 23.367L38.5671 23.433C38.3832 23.4779 38.2264 23.5336 38.0625 23.5871C37.9808 23.6134 37.9002 23.6428 37.8192 23.671C37.7386 23.7 37.6602 23.7356 37.5808 23.7678C37.5015 23.8004 37.4228 23.8344 37.3447 23.8694L37.2274 23.9213C37.1885 23.9391 37.1509 23.9597 37.1126 23.9788C36.9597 24.0557 36.8103 24.1385 36.6612 24.2193C36.085 24.5592 35.5575 24.9755 35.0931 25.4569L34.9282 25.6357C34.8741 25.6954 34.819 25.7527 34.7698 25.8168L34.4735 26.1872C34.3767 26.327 34.2818 26.4642 34.192 26.602C34.1463 26.4817 34.0902 26.3585 34.0311 26.228C33.9995 26.1555 33.9618 26.0843 33.9223 26.0117C33.8836 25.9385 33.8419 25.8648 33.7994 25.7891C33.7127 25.639 33.611 25.4898 33.5059 25.3343C33.3925 25.186 33.2787 25.0278 33.1453 24.8797C33.0787 24.8056 33.0119 24.7296 32.942 24.6547C32.8698 24.5805 32.796 24.5077 32.7208 24.4365C32.5719 24.2886 32.4041 24.1551 32.236 24.0168C31.8903 23.7522 31.5098 23.5096 31.1027 23.306C30.6935 23.1064 30.2648 22.9355 29.8263 22.8042C29.386 22.6777 28.9387 22.5869 28.4965 22.537C28.066 22.4917 27.6324 22.4822 27.2003 22.5085C27.096 22.517 26.9929 22.5281 26.8913 22.5381C26.8405 22.5438 26.7903 22.5473 26.7401 22.555L26.5911 22.5786C26.4925 22.5947 26.3956 22.6089 26.3004 22.6287C26.2052 22.6498 26.1118 22.6697 26.0203 22.6919C25.8371 22.7326 25.6623 22.7921 25.4952 22.8414C25.3291 22.9018 25.1704 22.9576 25.0219 23.0215C24.9476 23.0539 24.8759 23.088 24.8061 23.12C24.7363 23.1521 24.6687 23.1834 24.6042 23.2185C24.5392 23.2517 24.4771 23.287 24.4169 23.3203C24.3569 23.354 24.2986 23.3852 24.2439 23.4205C24.1337 23.4883 24.0337 23.5567 23.9417 23.617C23.851 23.6814 23.7707 23.7459 23.6981 23.8009C23.633 23.85 23.5703 23.9023 23.5102 23.9574C23.4569 24.0046 23.413 24.0469 23.3772 24.0799L23.27 24.1848C23.2129 24.2406 23.1733 24.3119 23.1561 24.3899C23.1388 24.4679 23.1446 24.5492 23.1729 24.6239C23.2011 24.6986 23.2505 24.7635 23.315 24.8106C23.3795 24.8578 23.4563 24.8851 23.536 24.8892L23.5716 24.8911L23.7101 24.8983L23.8722 24.9035L23.9731 24.9058C24.0095 24.9084 24.0479 24.9111 24.0878 24.9127C24.1676 24.9162 24.2558 24.9226 24.349 24.9256C24.4435 24.9327 24.5453 24.9437 24.6507 24.9501C24.8634 24.9704 25.0974 24.9963 25.3448 25.0359C25.4062 25.0423 25.4696 25.0581 25.5328 25.0685L25.7245 25.1026L25.9201 25.1453C25.9857 25.1588 26.0516 25.1719 26.1181 25.1908C26.1846 25.2086 26.2513 25.2241 26.3183 25.2406L26.5199 25.2986C26.6547 25.3339 26.7894 25.3845 26.9246 25.4257C27.1939 25.5229 27.4625 25.6274 27.7244 25.7474C27.7912 25.7792 27.8578 25.8117 27.9241 25.8447C27.8825 25.8466 27.8409 25.8482 27.7996 25.8516C27.6756 25.8603 27.5496 25.8627 27.4271 25.8772L27.0584 25.9183C26.5712 25.9864 26.0914 26.0749 25.6358 26.2033C25.5786 26.2187 25.5212 26.2329 25.4647 26.249L25.2966 26.3005C25.1852 26.3356 25.0739 26.3685 24.9648 26.4048C24.7484 26.4833 24.5333 26.5546 24.3287 26.6419C24.2266 26.6827 24.1251 26.7249 24.0241 26.7683C23.9249 26.8135 23.8266 26.8568 23.7304 26.9027C23.5367 26.9902 23.3531 27.0891 23.174 27.1818C22.9962 27.278 22.8263 27.3767 22.6633 27.4733C22.5824 27.523 22.5035 27.5729 22.4266 27.6225C22.3497 27.6723 22.2736 27.7187 22.2015 27.7699C22.0566 27.8702 21.9188 27.9663 21.7906 28.0628C21.6698 28.1547 21.5504 28.2485 21.4325 28.3442C21.3304 28.4305 21.2292 28.5181 21.1291 28.6067C21.0369 28.6905 20.9531 28.7725 20.8781 28.8433C20.727 28.9884 20.6247 29.1078 20.5507 29.1907C20.4784 29.2742 20.4408 29.3206 20.4408 29.3206C20.4157 29.3516 20.4002 29.3893 20.3961 29.4291C20.3921 29.4688 20.3997 29.5089 20.418 29.5443C20.4364 29.5798 20.4646 29.6092 20.4994 29.6289C20.5342 29.6485 20.5739 29.6577 20.6138 29.6551C20.6138 29.6551 20.6734 29.6514 20.7833 29.6406L20.9841 29.6178C21.0628 29.6058 21.1516 29.5984 21.2493 29.5875C21.442 29.5625 21.6797 29.5385 21.946 29.5016L22.831 29.3883C22.9913 29.3679 23.1582 29.3497 23.328 29.3255L23.8542 29.2627L24.1264 29.2316C24.2185 29.2195 24.3109 29.2092 24.4034 29.2005C24.497 29.1916 24.5903 29.1793 24.6847 29.1686C24.7796 29.1603 24.8749 29.1515 24.9703 29.1409C25.0657 29.13 25.1622 29.1215 25.2587 29.1134L25.5494 29.0868L25.8416 29.0641C25.9394 29.0566 26.037 29.0478 26.1348 29.0429C26.2325 29.0365 26.3307 29.0321 26.4283 29.0238L26.7209 29.011L26.8669 29.0036L27.012 29.0001C27.1086 28.9987 27.2058 28.9937 27.3014 28.9926C27.6854 28.9878 28.0595 28.996 28.4195 29.0151C28.5963 29.032 28.7747 29.0379 28.9419 29.063C29.1137 29.0771 29.2734 29.1044 29.4363 29.1175C29.5148 29.1291 29.5921 29.1405 29.6702 29.1488C29.7086 29.1541 29.7494 29.1554 29.786 29.1622C29.8231 29.1687 29.8604 29.174 29.8976 29.1793C29.9348 29.1848 29.9723 29.189 30.0097 29.1936C30.0283 29.196 30.0471 29.1978 30.0659 29.1994L30.1195 29.2084C30.1904 29.2213 30.2618 29.232 30.3341 29.2403C30.3712 29.2432 30.4035 29.2528 30.438 29.2583L30.541 29.2759C30.5752 29.2819 30.6096 29.2874 30.6447 29.2916C30.6803 29.2953 30.7107 29.3052 30.744 29.3115C30.8094 29.3256 30.8766 29.3364 30.9429 29.3487C31.0092 29.3604 31.0694 29.3793 31.1343 29.3921C31.3919 29.4456 31.6301 29.5186 31.8604 29.5909C31.9215 29.6054 31.9707 29.631 32.0262 29.6495C32.0799 29.6696 32.1332 29.6894 32.1864 29.708L32.2651 29.7359L32.3371 29.7676L32.4777 29.8268C32.6634 29.9002 32.8071 29.9763 32.916 30.0241C32.97 30.0485 33.0128 30.0676 33.0434 30.0797L33.0607 30.0869C33.063 30.398 33.0963 30.6722 33.1452 30.9004C33.1604 30.9717 33.1745 31.0386 33.1901 31.101C33.207 31.1636 33.2247 31.2216 33.2414 31.2754C33.2689 31.3665 33.3011 31.4561 33.3379 31.5439C33.3653 31.6158 33.3937 31.6695 33.4102 31.7058L33.4378 31.7603C33.4608 31.8059 33.4946 31.8454 33.5362 31.8752C33.5778 31.905 33.626 31.9242 33.6767 31.9314C33.7273 31.9385 33.779 31.9333 33.8272 31.9161C33.8754 31.899 33.9187 31.8704 33.9535 31.8329L34.0782 31.6982L34.0913 31.6841C34.0996 31.6748 34.1138 31.6608 34.1287 31.6429C34.1584 31.607 34.2083 31.554 34.2635 31.4882L34.702 30.9672L35.2588 30.2989C35.2824 30.2694 35.3074 30.2401 35.3329 30.2108C35.3452 30.1965 35.3566 30.1802 35.3684 30.167L35.4032 30.1316L35.4195 30.1136C35.4253 30.1065 35.4293 30.1046 35.437 30.0919L35.479 30.0283L35.4993 29.9959L35.5094 29.9796C35.4999 30.0146 35.5082 29.9877 35.5067 29.9948L35.5091 29.992L35.514 29.9865C35.5268 29.9717 35.5403 29.9572 35.5525 29.9422C35.6018 29.8824 35.6506 29.8221 35.6986 29.7613L35.7351 29.7157L35.7775 29.6716L35.8623 29.5832C35.9678 29.4629 36.1039 29.352 36.2299 29.2395C36.2984 29.1853 36.3724 29.1335 36.4422 29.0806C36.4787 29.0549 36.5098 29.0268 36.55 29.003C36.5889 28.9785 36.6284 28.9548 36.6659 28.9298C36.966 28.7298 37.3061 28.5634 37.6486 28.4043C37.9915 28.2455 38.3351 28.09 38.6826 27.9248L39.739 27.4427C39.7751 27.4255 39.8109 27.4078 39.8464 27.3896L39.9003 27.3615L39.9273 27.3471L39.9786 27.3305C40.1186 27.2871 40.2573 27.2383 40.3964 27.1922L40.4484 27.1747C40.4682 27.1703 40.3017 27.2043 40.3743 27.1893L40.3789 27.1879L40.3882 27.185L40.4069 27.1794L40.4817 27.1563L40.631 27.1059C40.6812 27.0902 40.7303 27.0683 40.7817 27.0569C40.8327 27.0439 40.8837 27.0296 40.9347 27.0142C41.0368 26.9841 41.1391 26.9511 41.2436 26.9304C41.3475 26.9059 41.4517 26.8757 41.5568 26.8537C41.662 26.8338 41.7676 26.8109 41.8735 26.7888C41.9795 26.7668 42.0857 26.7533 42.1922 26.7344L42.3523 26.707L42.5119 26.6877L42.6719 26.6676C42.7254 26.6596 42.7792 26.6511 42.8319 26.6484C42.9377 26.6405 43.0438 26.6313 43.1504 26.6197C43.204 26.6127 43.2559 26.6128 43.3083 26.6104C43.3605 26.6087 43.4135 26.604 43.4661 26.6009C43.6794 26.5791 43.8797 26.5949 44.0874 26.5839L44.3884 26.5908L44.5376 26.5945C44.5861 26.5981 44.6345 26.6012 44.683 26.6036L44.9713 26.62C45.0663 26.626 45.1546 26.6419 45.2472 26.648C45.3381 26.6572 45.4301 26.6631 45.5164 26.6754C45.6018 26.6892 45.6859 26.7026 45.7704 26.7129C45.8533 26.7253 45.9388 26.7325 46.0147 26.7494C46.0913 26.7656 46.1676 26.7794 46.2422 26.7923L46.4578 26.8318C46.5208 26.8468 46.5847 26.858 46.6451 26.8708L46.8197 26.9077C46.8762 26.9208 46.9289 26.9252 46.9822 26.9452C47.0862 26.979 47.1769 27.0053 47.2507 27.0264C47.3237 27.0485 47.3825 27.0622 47.421 27.0727L47.4799 27.0881L47.5569 27.1082C47.6002 27.1194 47.6454 27.1215 47.6897 27.1146C47.7339 27.1076 47.7763 27.0916 47.8141 27.0676C47.8505 27.0447 47.8821 27.0147 47.907 26.9795C47.9319 26.9443 47.9496 26.9045 47.9591 26.8625C47.9685 26.8204 47.9696 26.7769 47.9623 26.7344C47.9549 26.692 47.9393 26.6514 47.9162 26.6149Z" fill="#1B871B"/>
<path d="M45.3229 32.4122C45.317 32.1561 45.2852 31.8466 45.2098 31.5033C45.1349 31.1598 45.018 30.7819 44.8507 30.3874C44.6685 29.9634 44.4471 29.5574 44.1894 29.1746C44.0519 28.97 43.8989 28.7667 43.7327 28.5641C43.5633 28.3643 43.3828 28.163 43.182 27.9703C42.7814 27.5842 42.3153 27.2142 41.7569 26.9021C41.6864 26.8629 41.6152 26.8247 41.5435 26.7876L41.3199 26.6804C41.2452 26.6448 41.1652 26.6126 41.0874 26.5792L41.0283 26.5549L41.0135 26.5489C41.0342 26.5555 40.9768 26.5364 40.981 26.5377L40.9759 26.5356L40.9551 26.5271L40.9137 26.5101C40.8989 26.5041 40.8907 26.5 40.8612 26.49L40.7123 26.4389L40.5859 26.398C40.5027 26.3721 40.4189 26.3487 40.3344 26.3277C40.1669 26.2856 40.0011 26.2474 39.8353 26.222C39.1733 26.1114 38.5184 26.1118 37.8784 26.2078C37.5657 26.2545 37.2572 26.3256 36.9557 26.4205C37.1021 26.2288 37.2528 26.0403 37.4075 25.8553C37.6447 25.5698 37.8971 25.2855 38.1559 25.0048C38.4152 24.7247 38.6803 24.447 38.9483 24.1813C39.2154 23.9142 39.4826 23.6541 39.7457 23.4083C39.9982 23.1728 40.2538 22.9407 40.5127 22.7122C40.7419 22.5097 40.9738 22.3104 41.2085 22.1143C41.4237 21.9347 41.6187 21.7736 41.7845 21.6416C41.8261 21.6098 41.8653 21.5766 41.9026 21.5458L42.0056 21.4625C42.038 21.4373 42.0678 21.4111 42.0957 21.3881C42.1235 21.3647 42.1526 21.3445 42.1767 21.3259C42.2274 21.2869 42.2773 21.2469 42.3264 21.2059C42.3668 21.1715 42.3976 21.1274 42.4161 21.0777C42.4346 21.0281 42.44 20.9745 42.432 20.9221C42.4239 20.8697 42.4025 20.8203 42.3699 20.7785C42.3373 20.7367 42.2946 20.704 42.2458 20.6834C42.2458 20.6834 42.1832 20.657 42.0668 20.6142C41.9556 20.5716 41.7618 20.52 41.5353 20.4708C41.4079 20.4442 41.2799 20.4213 41.1512 20.402C41.0114 20.3835 40.8585 20.3655 40.6957 20.3555C40.3695 20.3335 39.9998 20.3334 39.5991 20.3682C39.1985 20.4027 38.7677 20.4732 38.3203 20.5852C37.8731 20.6973 37.4107 20.8529 36.9461 21.0518C36.7158 21.1543 36.4816 21.2625 36.2525 21.3873C36.0203 21.5077 35.7935 21.6446 35.5674 21.7888C35.3417 21.9336 35.121 22.0917 34.9035 22.2579C34.6875 22.4262 34.4754 22.6033 34.2711 22.7923C33.863 23.1702 33.4804 23.5872 33.1422 24.0422C32.9714 24.268 32.8132 24.5044 32.6723 24.7512C32.5303 24.9968 32.4053 25.2518 32.2983 25.5144C32.0832 26.0368 31.9443 26.5881 31.8907 27.1296C31.862 27.3994 31.8606 27.6698 31.8728 27.9283C31.8767 27.9894 31.8817 28.0498 31.8874 28.1097C31.7916 28.0612 31.6954 28.0138 31.5987 27.9673L31.4988 27.9198L31.3967 27.8784L31.1869 27.7949C30.9019 27.6749 30.5985 27.5894 30.2753 27.4929C30.1146 27.4509 29.95 27.4159 29.78 27.3782C29.6954 27.3611 29.6083 27.3387 29.5225 27.3264C29.4364 27.3133 29.3491 27.2991 29.2608 27.2877C28.9052 27.2334 28.5423 27.2152 28.1625 27.1998C27.9766 27.2037 27.7867 27.2088 27.5938 27.217C27.4968 27.2207 27.4031 27.233 27.3073 27.2435C27.2119 27.2547 27.1152 27.2647 27.0186 27.2785C26.2496 27.3904 25.4757 27.6288 24.7601 27.9967C24.6717 28.0441 24.5842 28.0931 24.4975 28.1438C24.41 28.1938 24.3233 28.2451 24.2374 28.2978C24.1946 28.3243 24.1505 28.3494 24.1087 28.3773L23.9851 28.4639C23.9025 28.5215 23.8205 28.5802 23.7396 28.6404C23.6588 28.7008 23.5758 28.7587 23.4988 28.8236C23.4222 28.8889 23.3445 28.9529 23.27 29.0208L23.0455 29.2229L22.9897 29.2736C22.9713 29.2902 22.9495 29.3125 22.9297 29.3317L22.8084 29.4518L22.5731 29.6984L22.4572 29.8224L22.3997 29.8845L22.3645 29.9287C22.2727 30.0432 22.1857 30.1623 22.0966 30.2789L22.0633 30.3228C22.0765 30.3091 21.9346 30.4594 21.992 30.3994L21.9867 30.4069L21.9758 30.4218L21.9542 30.4517L21.8682 30.5713L21.7014 30.8127C21.5889 30.9721 21.4876 31.1367 21.3917 31.3036C21.1906 31.6311 21.0283 31.9747 20.8721 32.3109C20.8003 32.4826 20.7329 32.6542 20.666 32.8231C20.6308 32.9066 20.6038 32.9937 20.5762 33.0798L20.4946 33.3363C20.2877 34.019 20.1611 34.6917 20.1221 35.3334L20.1057 35.5704C20.1007 35.6487 20.103 35.7284 20.102 35.806C20.1018 35.9617 20.101 36.1134 20.1053 36.2622C20.1149 36.4127 20.1247 36.5593 20.1388 36.7025L20.159 36.9139C20.1669 36.9837 20.1799 37.0535 20.1913 37.1218L20.2616 37.5191C20.2861 37.6473 20.3179 37.7729 20.351 37.8936C20.3848 38.0144 20.4141 38.1302 20.4503 38.2424C20.4875 38.3548 20.5245 38.4627 20.565 38.566C20.6404 38.7723 20.7226 38.9616 20.8102 39.1319L20.9321 39.3741C20.9749 39.4548 21.0212 39.5297 21.0628 39.5998L21.1823 39.7949C21.2009 39.825 21.2209 39.8536 21.239 39.8812C21.2484 39.8946 21.2571 39.9091 21.2665 39.9209L21.2943 39.9543C21.356 40.0292 21.4193 40.1029 21.4839 40.1753C21.5355 40.2353 21.58 40.2803 21.608 40.311L21.6514 40.3574L21.7247 40.436C21.7759 40.4906 21.8415 40.5295 21.9139 40.5481C21.9864 40.5667 22.0626 40.5642 22.1337 40.541C22.2048 40.5178 22.2678 40.4747 22.3153 40.4169C22.3628 40.3592 22.3928 40.289 22.4018 40.2148L22.4086 40.1589C22.4127 40.122 22.4209 40.0669 22.4267 39.9961L22.4508 39.7345C22.4532 39.6806 22.4675 39.6345 22.4761 39.5806L22.5047 39.4147C22.5144 39.3569 22.526 39.2965 22.535 39.2344L22.5783 39.0288C22.5937 38.9577 22.6091 38.8844 22.6231 38.809C22.636 38.7336 22.6616 38.6552 22.6811 38.5754C22.7029 38.4955 22.7228 38.4137 22.7428 38.3301C22.7646 38.2465 22.7945 38.161 22.8207 38.0741C22.8499 37.9873 22.8706 37.8985 22.9024 37.8087L23.0007 37.5355L23.0502 37.396L23.1074 37.2555L23.2234 36.9698C23.27 36.875 23.3123 36.7782 23.3564 36.6808C23.3789 36.6322 23.3988 36.5828 23.4235 36.5344L23.4998 36.3891C23.6915 35.9963 23.9313 35.6052 24.1909 35.2209C24.2587 35.1262 24.3227 35.029 24.3931 34.9353L24.6054 34.6542C24.6783 34.5618 24.7583 34.474 24.8338 34.3832C24.906 34.2899 24.988 34.2043 25.068 34.1171C25.1478 34.0298 25.2255 33.9406 25.3134 33.861L25.4407 33.7375L25.5024 33.6742L25.5179 33.6584L25.5256 33.6504L25.5294 33.6465C25.5636 33.6105 25.4871 33.6912 25.497 33.6811L25.5372 33.644L25.8598 33.3472L25.8998 33.3107L25.9309 33.2878L25.9927 33.2416L26.1146 33.1485C26.1858 33.0848 26.2872 33.0154 26.3799 32.9472C26.4271 32.9135 26.472 32.877 26.5177 32.8415C26.5635 32.8063 26.6129 32.7767 26.6601 32.7437C26.7575 32.6829 26.8441 32.6051 26.9427 32.5482C27.0403 32.4895 27.1327 32.4228 27.2273 32.3599C27.2805 32.3267 27.3339 32.2947 27.3871 32.2621C27.3656 32.2865 27.3434 32.3102 27.3222 32.3349C26.9006 32.8258 26.552 33.3801 26.2935 33.9997C26.2268 34.1536 26.171 34.3143 26.1177 34.4785C26.0905 34.5612 26.0657 34.6447 26.0434 34.7289L26.0108 34.8577L25.9749 35.011C25.9677 35.0414 25.9668 35.0505 25.964 35.0662L25.9564 35.1103L25.9525 35.1323L25.9516 35.1378C25.9527 35.1336 25.9384 35.1924 25.9438 35.1713L25.941 35.187L25.9301 35.25C25.9171 35.3337 25.9018 35.4185 25.8922 35.5007L25.8641 35.7472C25.8574 35.8276 25.8519 35.9081 25.8476 35.9887C25.8149 36.6276 25.8803 37.2191 25.9943 37.7637C26.0507 38.0363 26.1252 38.2961 26.2043 38.5458C26.2875 38.7944 26.3783 39.032 26.4784 39.2573C26.6656 39.6791 26.8917 40.0825 27.1539 40.4623C27.3989 40.8138 27.6567 41.1137 27.9078 41.3598C28.1584 41.6063 28.4036 41.7977 28.6174 41.9391C28.7213 42.0116 28.8248 42.0674 28.9107 42.1163C28.9997 42.1671 29.0864 42.208 29.1486 42.2383C29.2651 42.2792 29.3297 42.2985 29.3297 42.2985C29.419 42.3252 29.514 42.3269 29.6042 42.3035C29.6945 42.28 29.7766 42.2323 29.8417 42.1655C29.9067 42.0987 29.9522 42.0153 29.9733 41.9245C29.9943 41.8336 29.9901 41.7387 29.961 41.6501L29.9609 41.6498C29.9609 41.6498 29.9399 41.5856 29.8959 41.4702C29.8821 41.4182 29.8726 41.3597 29.8542 41.2887C29.8347 41.2139 29.816 41.1283 29.7942 41.0336C29.7117 40.6534 29.6271 40.1166 29.5814 39.4885C29.56 39.1738 29.5458 38.8378 29.5469 38.4909C29.5471 38.4043 29.5473 38.3172 29.5508 38.2293C29.5507 38.142 29.556 38.0538 29.5593 37.9657C29.5678 37.7898 29.5801 37.613 29.5971 37.439C29.6007 37.3953 29.6076 37.3523 29.6124 37.309C29.6162 37.2657 29.6211 37.2228 29.6276 37.1803C29.6374 37.0945 29.6539 37.0109 29.6653 36.9276C29.6804 36.8457 29.6941 36.7631 29.713 36.685C29.7275 36.6051 29.7479 36.5297 29.7669 36.455C29.7781 36.4188 29.7879 36.3824 29.7968 36.346L29.8292 36.2427C29.8395 36.2081 29.8532 36.1778 29.8643 36.1451L29.8724 36.121L29.8743 36.1149C29.8805 36.0902 29.8669 36.1454 29.8691 36.1376L29.8709 36.1323L29.8781 36.1111L29.8926 36.0687C29.8972 36.0557 29.9032 36.0358 29.9046 36.0376C29.9092 36.0314 29.9135 36.0252 29.9175 36.019L29.938 35.977C29.9531 35.9486 29.9646 35.9189 29.9802 35.8888C30.0084 35.8285 30.043 35.7678 30.0751 35.704C30.2157 35.4428 30.3724 35.1906 30.5441 34.9487C30.7059 34.721 30.8818 34.5037 31.0708 34.298C31.2472 34.1077 31.418 33.9447 31.5947 33.8028C31.7713 33.6619 31.9584 33.5387 32.1702 33.4414C32.3807 33.3446 32.6149 33.2736 32.8491 33.2301C33.0831 33.1842 33.3143 33.167 33.5162 33.1555C33.6182 33.1481 33.7091 33.1508 33.7935 33.1465C33.8763 33.1461 33.9487 33.1462 34.0093 33.1449C34.1284 33.1467 34.1978 33.1438 34.1978 33.1438L34.2449 33.1419C34.3115 33.1388 34.377 33.1232 34.4378 33.0958C34.6288 33.0101 34.7438 32.8254 34.7506 32.6294C34.8016 32.5936 34.8459 32.549 34.8814 32.4977L34.9071 32.4604C34.9071 32.4604 34.9465 32.4033 35.0083 32.3014C35.0416 32.2508 35.08 32.1894 35.1244 32.1196C35.1729 32.0503 35.2189 31.9719 35.2795 31.8895C35.3965 31.7246 35.5341 31.5379 35.6974 31.3642C35.8588 31.189 36.0435 31.0284 36.2374 30.9016C36.4323 30.774 36.6362 30.681 36.8495 30.6064C37.0636 30.5323 37.2925 30.4743 37.5475 30.4261C37.8222 30.3755 38.0998 30.342 38.3787 30.3261C38.673 30.3093 38.9822 30.3108 39.2677 30.3306C39.3388 30.3372 39.4086 30.3403 39.4747 30.3484C39.5084 30.3512 39.5396 30.3573 39.5718 30.3596L39.6182 30.3646C39.6256 30.3646 39.6331 30.3642 39.6408 30.3635C39.6399 30.3615 39.66 30.3669 39.6736 30.3699L39.7171 30.3802L39.7388 30.3854L39.7443 30.3866C39.7521 30.389 39.6981 30.3712 39.7223 30.3791L39.7285 30.3807L39.7532 30.3866C39.7867 30.3946 39.8198 30.3992 39.8545 30.4089L39.9592 30.4364C39.9947 30.4482 40.0307 30.4592 40.0674 30.4691C40.1408 30.4926 40.2154 30.5155 40.2909 30.5457C40.3671 30.5713 40.4443 30.6035 40.5216 30.6343C40.5983 30.669 40.6779 30.6994 40.7558 30.7368C40.7951 30.7539 40.8341 30.7726 40.8729 30.7924C40.9121 30.8114 40.9522 30.8285 40.9911 30.8487C41.1485 30.9276 41.3039 31.0103 41.4573 31.0967C41.5336 31.1409 41.6111 31.1833 41.685 31.2298C41.7613 31.2735 41.8351 31.3197 41.9086 31.3656C42.203 31.5491 42.48 31.7398 42.7351 31.9253C43.2428 32.2981 43.6524 32.6552 43.9305 32.9273C43.999 32.996 44.0616 33.0575 44.1146 33.1137C44.1649 33.1671 44.2094 33.2063 44.2461 33.2456C44.3205 33.3443 44.3636 33.3962 44.3636 33.3962L44.3637 33.3964C44.4302 33.4766 44.5197 33.5345 44.6202 33.5622C44.7507 33.5984 44.8903 33.5812 45.0081 33.5145C45.126 33.4478 45.2125 33.3371 45.2487 33.2066C45.2487 33.2066 45.2667 33.1416 45.294 33.0211C45.3014 32.9523 45.3129 32.8571 45.3172 32.7548C45.3212 32.6561 45.3291 32.5389 45.3229 32.4122Z" fill="#2BA52E"/>
<path d="M38.2645 36.2596L34.6126 37.2468C34.3991 36.2838 34.1032 35.5127 33.7506 34.7686L37.0866 33.5911C37.4909 34.3354 37.838 35.1125 38.1362 35.9072C38.18 36.0243 38.2228 36.1418 38.2645 36.2596ZM35.0518 42.3123L39.5247 41.853C39.4163 40.9145 39.2652 39.9831 39.0631 39.0642L34.9821 39.7633C35.0519 40.6076 35.0726 41.4589 35.0518 42.3123ZM34.5389 47.2202H39.732C39.7538 46.4307 39.7563 45.6393 39.7343 44.8491H34.8774C34.7904 45.6435 34.6753 46.4352 34.5389 47.2202Z" fill="#AF773F"/>
<defs>
<clipPath id="clip0_27_185">
<rect width="70" height="96" fill="white"/>
</clipPath>
</defs>
</svg>
